<svg width="27" height="27" viewBox="0 0 27 27" fill="none" xmlns="http://www.w3.org/2000/svg">
<g clip-path="url(#clip0_111_2)">
<path d="M26.5 26.5H0V0H26.5V26.5ZM1.5 25H25V1.5H1.5V25Z" fill="#4FD1C5"/>
<path d="M23 9.6601L12.14 20.5401C12.0719 20.6106 11.9903 20.6666 11.9001 20.7049C11.8099 20.7432 11.7129 20.7629 11.615 20.7629C11.517 20.7629 11.42 20.7432 11.3298 20.7049C11.2396 20.6666 11.158 20.6106 11.09 20.5401L4.46995 13.8801C4.40071 13.8113 4.34576 13.7295 4.30827 13.6394C4.27077 13.5493 4.25146 13.4527 4.25146 13.3551C4.25146 13.2575 4.27077 13.1609 4.30827 13.0708C4.34576 12.9807 4.40071 12.8989 4.46995 12.8301L6.04995 11.2401C6.18643 11.115 6.36483 11.0456 6.54995 11.0456C6.73508 11.0456 6.91348 11.115 7.04995 11.2401L11.57 15.7901L20.39 7.0001C20.5306 6.85965 20.7212 6.78076 20.92 6.78076C21.1187 6.78076 21.3093 6.85965 21.45 7.0001L23 8.6001C23.1404 8.74073 23.2193 8.93135 23.2193 9.1301C23.2193 9.32885 23.1404 9.51948 23 9.6601Z" fill="#4FD1C5"/>
</g>
<defs>
<clipPath id="clip0_111_2">
<rect width="26.5" height="26.5" fill="white"/>
</clipPath>
</defs>
</svg>
